Patient4_TMGait_0pt6_01_right_46_EMG.mot
version=1
nRows=31
nColumns=33
inDegrees=no
endheader
time	1LAddLong	2LGlutMax	3LGlutMed	4LIliopsoas	5LSemiMemb	6LBicFemLong	7LRecFem	8LVastMed	9LVastLat	10LGasMed	11LTibAnt	12lTibPost	13LPeroneusLong	14LSol	15LExtDigLong	16LFlexDigLong	17RAddLong	18RGlutMax	19RGlutMed	20RIliopsoas	21RSemiMemb	22RBicFemLong	23RRecFem	24RVastMed	25RVastLat	26RGasMed	27RTibAnt	28RTibPost	29RPeroneusLong	30RSol	31RExtDigLong	32RFlexDigLong
55.787	-0.019379	-0.18219	0.12039	0.025787	0.016327	0.023346	0.19775	-0.02182	0.1387	0.010529	0.019226	0.007324	-0.11719	-0.26642	-0.37354	-0.002289	0.054169	0.082703	-0.68237	0.018158	0.12497	0.20462	-0.028229	-0.068512	-0.30029	-0.041351	-0.1535	-0.11185	-0.7785	0.093384	-0.000763	-0.010834
55.788	-0.02533	-0.16953	0.11749	-0.001526	0.014343	0.021667	0.19821	0.026855	0.15381	0.040588	-0.10559	0.007782	-0.16922	-0.22659	-0.3183	-0.005035	0.073853	-0.23086	-1.1398	0.10193	0.097198	-0.025024	0.11322	-0.082855	-0.3241	0.18723	0.093536	-0.001373	-1.2407	0.058899	-0.00824	-0.010376
55.789	-0.02655	-0.21851	0.10346	0.014648	-0.002594	-0.000458	0.19623	0.008698	0.16525	0.058136	-0.065613	0.005341	-0.23819	-0.16159	0.89493	-0.009155	-0.003967	-0.48966	-0.58899	0.13062	-0.13886	-0.11063	0.049438	-0.073853	-0.32349	0.06073	-0.016937	-1.8259	-1.1681	-1.2314	-0.00061	-0.010834
55.79	-0.026855	-0.18997	0.11643	0.041504	-0.011292	0.003357	0.19638	-0.002136	0.18936	0.022888	-0.031891	0.003815	-0.16769	-0.13275	0.020447	0.017395	-0.044861	-0.5304	0.024719	0.10635	-0.30487	0.066528	-0.041046	-0.057831	-0.35965	-0.23911	-0.56442	-0.37338	-0.16525	-0.56152	0.000305	-0.016174
55.791	-0.028992	-0.14771	0.13168	0.048065	-0.016479	0.000305	0.21408	0.003967	0.2063	-0.013733	-0.049438	0.007477	-0.04776	-0.1178	0.25345	0.02655	-0.10971	-0.6572	0.31372	0.070648	-0.22186	0.35278	-0.32196	-0.059052	-0.18692	-0.47424	-0.71701	-0.23712	0.17548	2.4025	0	-0.030212
55.792	-0.024109	-0.13825	0.13657	-0.003052	-0.012817	-0.028839	0.23697	0.003204	0.22614	-0.009613	0.060425	0.006104	-0.07782	-0.040283	-0.40909	0.016479	-0.1059	-0.72647	-0.53558	0.024719	0.13275	0.25421	-0.37552	-0.001373	-0.12924	-0.18662	-0.42694	-0.30502	0.57449	3.9774	-0.005798	-0.002747
55.793	-0.030975	-0.057678	0.13092	-0.009613	0.009308	-0.051422	0.23193	-0.003357	0.21591	0.040131	0.19898	0.007019	-0.18539	-0.067749	-0.22614	0.01358	-0.04425	-0.69076	-1.2129	0.018311	0.49774	-0.13351	-0.24994	0.025635	-0.13779	0.10849	-0.33554	0.52704	1.248	3.7184	-0.00824	-0.000458
55.794	-0.02594	-0.043945	0.11185	0.001831	0.020142	0.000458	0.2359	0.007629	0.21484	0.097809	0.14145	0.007782	-0.26016	-0.092468	-0.159	0.012054	-0.034332	-0.81955	-1.1586	0.045776	0.23941	-0.28549	-0.14786	0.006256	-0.18997	0.15488	-0.21057	1.1978	0.9903	2.3921	-0.008545	-0.011444
55.795	-0.027924	-0.045013	0.13306	0.04303	0.023041	0.020599	0.23254	0.003815	0.22553	0.029144	0.16632	-0.002441	-0.24887	-0.09201	0.11505	0.008698	-0.019684	-1.2198	-1.1308	0.069122	-0.021667	-0.37933	-0.018311	0.0354	-0.14648	0.15366	0.2713	1.3675	0.80963	0.60364	-0.002441	-0.012817
55.796	-0.023651	-0.049744	0.18677	0.029144	0.016174	0.018921	0.27176	0.005646	0.2211	0.018311	0.30426	0.007477	-0.14832	-0.000153	0.495	0.006714	0.024719	-1.4613	-0.66956	0.059967	-0.1831	-0.41168	0.096741	-0.10254	-0.14511	0.15274	0.049133	0.60547	0.52872	0.28214	-0.00351	-0.009003
55.797	-0.008392	0.028076	0.20416	0.005035	0.014954	0.02121	0.27908	0.001831	0.22369	-0.020447	0.43274	0.004883	-0.046387	0.09491	0.72083	0.009766	0.028992	-1.3588	0.039978	-0.010986	-0.37323	-0.33539	0.097809	-0.2739	-0.19882	0.15243	0.73257	0.11551	0.25879	0.62302	-0.00061	0.00473
55.798	0.000763	0.049133	0.21362	-0.020599	0.011749	0.005646	0.31036	0.002747	0.23911	-0.036469	0.52475	0.00824	-0.012512	0.075684	1.4561	0.011597	0.011749	-1.0567	0.73181	-0.12207	-0.19363	-0.19531	0.18768	-0.32501	-0.28351	0.12772	1.0318	-0.053558	-0.1207	0.3157	-0.001678	-0.003662
55.799	-0.007477	0.072784	0.18539	0.011597	0.006409	-0.03418	0.30716	0.001221	0.25299	-0.072784	-0.26016	0.001221	0.050507	0.10284	0.60944	0.009308	-0.000916	-0.9169	1.0692	-0.11566	0.054474	-0.13718	0.10864	-0.22003	-0.26413	0.1268	0.12863	-0.032196	-0.11963	0.17899	-0.005188	-0.00412
55.8	-0.005493	0.001221	0.20294	0.023651	0.019379	-0.050201	0.3389	0.000916	0.25574	-0.019226	-0.44144	0.002289	-0.064087	0.13168	1.3782	0.010834	-0.015869	-1.2111	0.23666	-0.053711	-0.12299	-0.28412	-0.061493	-0.045624	-0.20386	0.10788	-0.71411	-0.048828	0.15625	-0.36972	-0.003662	-0.011597
55.801	0.003052	0.005188	0.21454	0.017395	0.017853	-0.013733	0.40741	0.005646	0.27054	0.013885	-0.26184	-0.002289	-0.25986	0.17777	0.23621	-0.00824	-0.009613	-1.2982	-0.49179	0.19287	0.005798	-0.27344	-0.1918	-0.06073	-0.19531	0.092163	-0.61737	-0.028534	0.29511	-0.44113	-0.002136	-0.018616
55.802	-0.000305	0.031738	0.21347	-0.03067	0.016174	-0.013275	0.40787	0.003052	0.27359	-0.011139	-0.22476	0.004578	-0.22522	0.18372	-0.83069	-0.002289	0.004578	-1.333	-0.01236	0.17593	0.080109	-0.29892	-0.10346	-0.14282	-0.21103	0.064697	0.24246	-0.09201	0.32745	-0.6076	-0.000763	-0.02655
55.803	0.000305	0.050659	0.242	-0.016785	0.015869	-0.000916	0.43228	0.001831	0.26321	-0.028839	-0.16922	0.00885	-0.1506	0.15503	-0.81192	0.000763	0.006714	-1.3341	-0.16449	-0.042267	-0.050659	-0.098419	0.050049	0.024414	-0.14008	0.036163	1.7223	-0.13092	0.30304	-1.1363	0.00473	-0.02243
55.804	0.00473	0.062714	0.27298	-0.008545	0.005798	-0.019989	0.40024	0.000305	0.2449	0.009308	0.18509	0.001068	-0.16434	0.071869	-0.93994	-0.015259	-0.001831	-1.4983	-0.1358	-0.15518	-0.19287	-0.015259	-0.019989	0.25681	-0.036163	-0.049286	1.2862	-0.16266	0.14221	-1.2648	-0.002594	-0.022583
55.805	0.003815	0.079651	0.29129	0.007324	-0.003357	-0.00885	0.39383	0.005646	0.25635	0.013123	0.28015	0.002747	-0.067749	-0.052643	-0.8461	-0.003204	0.019226	-1.8993	-0.024567	-0.11444	-0.17593	-0.1709	-0.070343	0.2655	0.015106	-0.10819	-0.99228	-0.1741	0.002594	-0.92697	-0.004272	-0.031738
55.806	0.009003	0.066223	0.30472	0.005188	0.011597	-0.010834	0.41367	0.005035	0.26916	0.024414	0.24139	0.000153	-0.044556	-0.2066	-0.26215	-0.00824	0.010529	-2.3976	-0.74066	0.046539	-0.063782	-0.054932	-0.020905	0.23331	0.028229	-0.12909	-1.4201	-0.17303	-0.041809	-0.19211	-0.002136	-0.043945
55.807	0.015259	0.067291	0.31281	-0.030823	0.011749	-0.023193	0.40955	-0.001068	0.28198	0.021973	0.17044	0.001526	-0.11063	-0.11688	-0.098877	-0.004272	0.006561	-2.5101	-0.94864	0.20508	0.06134	0.17044	0.13397	0.20371	0.019836	-0.15457	-1.5781	-0.089722	0.29373	0.34393	0.001221	-0.030518
55.808	0.01297	0.10635	0.29083	-0.037994	0.012665	-0.007782	0.401	0.000916	0.30273	-0.003815	-0.13443	0.004425	-0.021973	-0.01709	-0.082855	0.013275	-0.062408	-2.4364	-0.88867	0.2327	-0.17502	-0.11414	0.12222	0.15732	0.00412	-0.30136	-1.3919	-0.1442	0.27649	0.24963	-0.000458	-0.022888
55.809	0.01709	0.13001	0.31174	-0.020447	0.018921	0.002899	0.3624	0.001831	0.29327	-0.043182	-0.33463	-0.001984	0.011597	0.002136	-0.16251	-0.002747	-0.13351	-2.4196	-0.59692	0.084381	-0.09552	-0.055237	0.11002	0.24063	0.012665	-0.616	-0.86044	-0.13977	0.2652	0.56915	-0.00351	-0.010376
55.81	0.009918	0.1413	0.31143	-0.010681	0.010223	0.005341	0.30945	0.005646	0.2861	-0.084229	-0.23315	-0.005798	0.056915	0.038452	0.01297	0.006409	-0.083923	-2.6248	-1.1784	0.007629	0.15869	-0.062256	0.20157	0.18478	-0.04425	-0.27313	-0.28122	-0.53558	0.096741	0.53741	0.001068	-0.011444
55.811	0.007477	0.20004	0.31494	0.006714	0.009308	0.02243	0.30991	0.00946	0.26001	-0.069427	-0.13504	-0.003052	0.044708	0.024414	0.15778	0.012512	-0.047455	-2.7409	-1.3258	-0.012207	0.23346	0.12192	0.23987	0.077209	-0.034485	0.14404	0.3978	0.23209	-0.087738	0.61249	-0.001678	-0.013123
55.812	-0.006104	0.21744	0.30945	0.023804	0.012665	0.014954	0.2092	0.006256	0.25467	-0.023499	-0.11017	-0.015564	-0.046387	-0.00885	-0.18356	0.003815	-0.000916	-2.683	-1.3257	-0.011292	-0.036011	0.13473	0.30731	0.06897	-0.055237	0.11078	0.92133	0.21927	-0.10208	1.2173	0.007782	-0.021362
55.813	-0.004578	0.29633	0.29221	0.030823	0.00412	-0.014496	0.1442	0.030518	0.23086	-0.031128	-0.055237	0.001373	-0.12497	0	0.97336	0.015564	-0.024414	-2.5714	-1.4442	-0.022736	-0.080566	-0.054016	0.32883	-0.009613	-0.039063	0.050049	0.67886	-0.025024	0.25574	0.91278	-0.000916	-0.043182
55.814	-0.00885	0.31616	0.2562	0.020752	0.010834	0.019836	0.21118	0.027924	0.22125	-0.011139	0.23346	-0.009918	-0.21896	0.040283	-0.26001	0.014648	-0.042877	-2.5453	-1.1766	-0.025024	-0.096283	-0.03479	0.34912	-0.04715	-0.064697	0.011902	0.98602	-0.081329	0.70236	-0.39352	-0.000305	-0.037689
55.815	-0.005646	0.31265	0.20996	-0.008087	0.006561	0.015259	0.27176	0.00061	0.20889	-0.03479	0.29511	-0.002899	-0.15488	0.030975	0.075531	0.007172	-0.052185	-2.5816	-1.0014	-0.047302	0.12711	-0.04364	0.32669	0.013733	-0.048828	-0.1413	1.0577	-0.08255	0.90424	-1.4084	-0.000763	-0.036011
55.816	-0.019989	0.36606	0.18005	-0.023041	0.003052	0.024719	0.2681	0.002441	0.159	-0.044098	0.31418	-0.013885	-0.10925	0.064087	-0.10773	0.009766	-0.057678	-2.5134	-0.7988	-0.037384	-0.030975	-0.22812	0.36453	0.083923	-0.039215	-0.46341	1.237	-0.076599	0.64117	-2.0638	-0.002594	-0.048676
55.817	-0.020905	0.44693	0.16022	-0.018005	0.005341	0.002747	0.2533	0.004272	0.15549	-0.049286	-0.25604	-0.002594	-0.068054	0.056305	0.39932	0.019989	-0.05188	-2.2501	-0.6041	-0.029297	-0.14282	-0.32532	0.41489	0.13763	-0.062256	-0.43594	1.0582	-0.080872	0.13992	-1.8005	-0.003967	-0.051727
